<svg width="24" height="24" viewBox="0 0 24 24" fill="none" xmlns="http://www.w3.org/2000/svg">
<g clipPath="url(#clip0_8769_3299)">
<g clipPath="url(#clip1_8769_3299)">
<path d="M17.0016 24.0047H21C22.6547 24.0047 24 22.6594 24 21.0047V11.189C24 10.3922 23.6859 9.62811 23.1188 9.0703L15.5344 1.48124C13.5797 -0.468762 10.4156 -0.468762 8.46094 1.48124L0.88125 9.0703C0.314062 9.62811 0 10.3922 0 11.189V21.0047C0 22.6594 1.34531 24.0047 3 24.0047H6.99844C8.10469 24.0047 9 23.1094 9 22.0031V18.1125C9 16.4625 10.3125 15.089 11.9625 15.0703C13.6359 15.0469 15 16.4016 15 18.0703V22.0031C15 23.1094 15.8953 24.0047 17.0016 24.0047ZM21.9984 21.0047C21.9984 21.5578 21.5484 22.0031 21 22.0031H17.0016V18.0703C17.0016 15.3094 14.7609 13.0687 12 13.0687C9.23906 13.0687 6.99844 15.3094 6.99844 18.0703V22.0031H3C2.44688 22.0031 2.00156 21.5531 2.00156 21.0047V11.189C2.00156 10.9219 2.10938 10.6687 2.29688 10.4812L9.87656 2.90155C11.0484 1.73436 12.9469 1.73436 14.1188 2.90155L21.7031 10.4859C21.8906 10.6734 21.9937 10.9265 21.9984 11.189V21.0047Z" fill="#A6ACAF" fill-opacity="1"/>
</g>
</g>
<defs>
<clipPath id="clip0_8769_3299">
<rect width="24" height="24" fill="white"/>
</clipPath>
<clipPath id="clip1_8769_3299">
<rect width="24" height="24" fill="white"/>
</clipPath>
</defs>
</svg>
